<?xml version="1.0" encoding="iso-8859-1"?>
<!-- Generator: Adobe Illustrator 19.0.0, SVG Export Plug-In . SVG Version: 6.00 Build 0)  -->
<svg xmlns="http://www.w3.org/2000/svg" xmlns:xlink="http://www.w3.org/1999/xlink" version="1.1" id="Layer_1" x="0px" y="0px" viewBox="0 0 512 512" style="enable-background:new 0 0 512 512;" xml:space="preserve" width="512" height="512">
<g>
	<path d="M180,106h-30V91c0-24.813-20.187-45-45-45S60,66.187,60,91v15H30v270H0v90h210v-90h-30V256h332v-90H180V106z M90,91   c0-8.271,6.729-15,15-15s15,6.729,15,15v15H90V91z M180,436H30v-30h150V436z M60,376V136h90v240H60z M302.972,226h-54.554l20.5-30   h54.054L302.972,226z M359.028,196h53.944l-20,30h-53.944L359.028,196z M482,226h-52.972l20-30H482V226z M232.582,196l-20.5,30H180   v-30H232.582z"/>
	<circle cx="105" cy="211" r="15"/>
</g>















</svg>
