<svg xmlns="http://www.w3.org/2000/svg" width="26" height="26" viewBox="0 0 26 26">
    <path fill="#293440" d="M13 0C7.625 0 2.996 3.269 1.022 7.933c-.147.33-.104.714.112 1.004.216.29.572.44.93.393.359-.046.664-.283.8-.618C4.532 4.769 8.434 1.999 13 1.999c2.693 0 5.148.962 7.06 2.563.274.23.65.296.986.173.336-.122.58-.414.642-.766.062-.352-.068-.71-.342-.94C19.088 1.14 16.17 0 13 0zm0 3.998c-1.05 0-2.06.18-3 .511-.337.12-.585.41-.65.76-.065.352.062.712.334.944.272.232.647.301.984.182.729-.258 1.511-.398 2.332-.398 3.877 0 7 3.12 7 6.996v9.994c-.005.36.184.696.496.878.311.182.697.182 1.008 0 .312-.182.501-.517.496-.878v-9.994c0-4.956-4.042-8.995-9-8.995zM23.504 6.22c-.353.006-.676.197-.851.503-.175.306-.176.682-.003.989.86 1.567 1.35 3.362 1.35 5.28v6.996c-.005.36.184.696.496.877.311.182.697.182 1.008 0 .312-.181.501-.517.496-.877v-6.996c0-2.258-.58-4.388-1.596-6.24-.176-.333-.524-.538-.9-.532zm-16.856.845c-.294.016-.566.16-.744.395C4.712 8.986 4 10.91 4 12.993v9.994c-.005.36.184.696.496.878.311.182.697.182 1.008 0 .312-.182.501-.517.496-.878v-9.994c0-1.627.552-3.115 1.48-4.302.247-.308.29-.731.111-1.082-.18-.35-.549-.563-.943-.543zm6.352.93c-2.75 0-5 2.249-5 4.997v11.993c-.005.36.184.696.496.878.311.181.697.181 1.008 0 .312-.182.501-.517.496-.878V12.993c0-1.668 1.332-2.998 3-2.998s3 1.33 3 2.998c0 1.197-.05 2.446-.129 3.662-.026.358.143.703.441.902.299.2.682.225 1.003.064.322-.16.532-.48.552-.84.08-1.246.133-2.535.133-3.788 0-2.748-2.25-4.997-5-4.997zM.98 11.17c-.512.024-.923.432-.95.944-.02.29-.03.584-.03.879v6.996c-.005.36.184.696.496.877.311.182.697.182 1.008 0 .312-.181.501-.517.496-.877v-6.996c0-.251.009-.499.025-.744.024-.286-.077-.57-.278-.776-.2-.207-.479-.317-.766-.303zm12.004.81c-.551.008-.992.462-.984 1.013v6.834c-.005.36.184.696.496.877.311.182.697.182 1.008 0 .312-.181.501-.517.496-.877v-6.834c.004-.27-.102-.53-.294-.721-.19-.191-.451-.296-.722-.292zm4 8.243c-.551.009-.992.462-.984 1.013v3.75c-.005.36.184.696.496.878.311.181.697.181 1.008 0 .312-.182.501-.517.496-.878v-3.75c.004-.27-.102-.53-.294-.72-.19-.192-.451-.297-.722-.293zm-3.957 2.641c-.265-.001-.52.103-.71.29-.188.186-.294.44-.296.706L12 24.967c-.01.552.428 1.008.98 1.019.553.01 1.01-.428 1.02-.98l.021-1.107c.01-.27-.09-.532-.278-.727-.187-.195-.445-.306-.716-.308z"/>
</svg>
