<svg xmlns="http://www.w3.org/2000/svg" width="18" height="26" viewBox="0 0 18 26">
    <path fill="#293440" d="M9.002 0C3.674 0 0 2.694 0 13c0 10.3 3.674 13 9.002 13C14.33 26 18 23.3 18 13 18 2.694 14.329 0 9.002 0zm-.059 3.002c.3-.017.598.101.805.334l4 4.5c.345.387.336.973-.02 1.35L10.139 13l3.59 3.814c.355.377.364.963.02 1.35l-4 4.5C9.554 22.882 9.28 23 9 23c-.119 0-.24-.02-.355-.064C8.257 22.788 8 22.415 8 22v-6.729l-2.271 2.415c-.38.403-1.013.42-1.415.04-.402-.377-.42-1.01-.043-1.414L7.393 13 4.27 9.686c-.378-.402-.359-1.036.043-1.415.402-.379 1.035-.36 1.415.043L8 10.73V4c0-.415.257-.788.645-.936.097-.036.198-.056.298-.062zM10 6.631v3.598l1.645-1.749L10 6.63zm0 9.14v3.598l1.645-1.85L10 15.772z"/>
</svg>
