<svg xmlns="http://www.w3.org/2000/svg" width="25" height="24" viewBox="0 0 25 24">
    <path fill="#293440" d="M9.99 0c-.407 0-.773.247-.926.624C8.91 1 9 1.432 9.293 1.716l.086.086-8.793 8.79c-.372.372-.586.886-.586 1.413 0 .526.214 1.041.586 1.413l10 9.996c.372.372.887.586 1.414.586.527 0 1.042-.214 1.414-.586l8.793-8.79.086.087c.25.26.623.366.974.275.35-.092.624-.365.715-.715.092-.35-.014-.723-.275-.974l-13-12.994C10.519.109 10.26 0 9.99 0zm.803 3.215l8.793 8.79H2l8.793-8.79zM23 18.002s-2 2.894-2 3.999c0 1.104.895 1.999 2 1.999s2-.895 2-2c0-1.104-2-3.998-2-3.998z"/>
</svg>
