<svg xmlns="http://www.w3.org/2000/svg" width="22" height="22" viewBox="0 0 22 22">
    <path fill="#FFF" d="M3.617 0c-.755 0-1.452.431-1.789 1.107L0 4.764V20c0 1.105.895 2 2 2h18c1.105 0 2-.895 2-2V4.764l-1.83-3.659C19.832.431 19.137 0 18.383 0H3.617zm.002 2h14.762l1.5 3H2.119l1.5-3zM11 8c.553 0 1 .448 1 1v6.586l1.293-1.293c.391-.391 1.023-.391 1.414 0s.391 1.023 0 1.414l-3 3c-.195.195-.451.293-.707.293-.256 0-.512-.098-.707-.293l-3-3c-.391-.391-.391-1.023 0-1.414s1.023-.391 1.414 0L10 15.586V9c0-.552.447-1 1-1z"/>
</svg>
