<svg xmlns="http://www.w3.org/2000/svg" width="24" height="18" viewBox="0 0 24 18">
    <path fill="#293440" d="M20.037 0c-.389-.008-.747.201-.919.537-.172.335-.126.736.118 1.027C20.963 3.688 22 6.34 22 9.236c0 2.69-.894 5.172-2.406 7.216-.224.279-.271.653-.123.975.148.323.468.541.833.57.366.028.718-.137.919-.432C22.963 15.213 24 12.337 24 9.235c0-3.336-1.2-6.41-3.188-8.854-.184-.234-.47-.374-.775-.38zM11 1.301L6.793 5.146H3c-1.657 0-3 1.29-3 2.883V9.95c0 1.593 1.343 2.883 3 2.883h3.793L11 16.68V1.3zm3.738 1.53c-.406-.008-.777.22-.939.579-.161.358-.081.775.203 1.054C15.239 5.71 16 7.384 16 9.236c0 1.656-.607 3.17-1.62 4.364-.238.265-.308.634-.182.963.127.329.43.566.79.618.36.052.722-.09.944-.368C17.22 13.292 18 11.345 18 9.236c0-2.36-.976-4.514-2.55-6.099-.185-.19-.441-.3-.712-.306z"/>
</svg>
