<?xml version="1.0" encoding="iso-8859-1"?>
<!-- Generator: Adobe Illustrator 19.0.0, SVG Export Plug-In . SVG Version: 6.00 Build 0)  -->
<svg version="1.1" id="Capa_1" xmlns="http://www.w3.org/2000/svg" xmlns:xlink="http://www.w3.org/1999/xlink" x="0px" y="0px"
	 viewBox="0 0 512 512" style="enable-background:new 0 0 512 512;" xml:space="preserve">
<g>
	<g>
		<path d="M0,0v512h512V0H0z M482,482H30V30h452V482z"/>
	</g>
</g>
<g>
	<g>
		<path d="M410.82,182.388l-51.16-88.612H257.34l-42.5,73.612h-85L78.68,256l51.16,88.612h85l42.5,73.612h102.32l51.16-88.612
			L368.32,256L410.82,182.388z M274.66,123.776h67.68l33.84,58.612L351,226l-33.84-58.613h-67.679L274.66,123.776z M147.16,314.612
			L113.32,256l33.84-58.612h50.359L163.68,256l33.84,58.612H147.16z M231.76,285.306l-8.26,14.306L198.32,256l25.18-43.613
			l8.26,14.306L248.68,256L231.76,285.306z M299.839,197.388L325.019,241H274.66l-16.92-29.306l-8.26-14.306H299.839z
			 M257.74,300.306L274.66,271h50.359l-25.18,43.612H249.48L257.74,300.306z M376.18,329.613l-33.84,58.611h-67.68l-25.179-43.612
			h67.679L351,286L376.18,329.613z"/>
	</g>
</g>
<g>
</g>
<g>
</g>
<g>
</g>
<g>
</g>
<g>
</g>
<g>
</g>
<g>
</g>
<g>
</g>
<g>
</g>
<g>
</g>
<g>
</g>
<g>
</g>
<g>
</g>
<g>
</g>
<g>
</g>
</svg>
