<svg xmlns="http://www.w3.org/2000/svg" width="22" height="22" viewBox="0 0 22 22">
    <path fill="#293440" d="M2 0C.895 0 0 .895 0 2v4c0 1.105.895 2 2 2h4c1.105 0 2-.895 2-2V2c0-1.105-.895-2-2-2H2zm14 0c-1.105 0-2 .895-2 2v4c0 1.105.895 2 2 2h4c1.105 0 2-.895 2-2V2c0-1.105-.895-2-2-2h-4zM2 2h4v4H2V2zm8 0v2h2V2h-2zm6 0h4v4h-4V2zM3 3v2h2V3H3zm14 0v2h2V3h-2zm-7 3v2h2V6h-2zm-8 4v2h2v-2H2zm4 0v2h2v-2H6zm4 0v2h2v-2h-2zm2 2v2h2v-2h-2zm2 0h2v-2h-2v2zm2 0v2h2v-2h-2zm2 0h2v-2h-2v2zm2 0v2h2v-2h-2zm0 2h-2v2h2v-2zm0 2v2h2v-2h-2zm0 2h-2v2h2v-2zm-2 2h-2v2h2v-2zm-2 0v-2h-2v2h2zm-2 0h-2v2h2v-2zm-2 0v-2h-2v2h2zm0-2h2v-2h-2v2zm0-2v-2h-2v2h2zm2 0h2v-2h-2v2zm2 0v2h2v-2h-2zM2 14c-1.105 0-2 .895-2 2v4c0 1.105.895 2 2 2h4c1.105 0 2-.895 2-2v-4c0-1.105-.895-2-2-2H2zm0 2h4v4H2v-4zm1 1v2h2v-2H3z"/>
</svg>
