<svg xmlns="http://www.w3.org/2000/svg" width="22" height="23" viewBox="0 0 22 23">
    <path fill="#293440" d="M3 0L0 3.997h2.045c.085 1.817.282 2.957.478 3.84.26 1.17.477 1.768.477 3.156 0 1.277-.395 2.051-.895 3.05-.5 1-1.105 2.225-1.105 3.946 0 1.61.271 2.74.572 3.494.301.752.721 1.21.721 1.21.25.26.623.366.974.275.35-.092.624-.365.715-.715.091-.35-.014-.723-.275-.973 0 0-.08-.043-.28-.54C3.23 20.245 3 19.378 3 17.99c0-1.277.395-2.052.895-3.051.5-1 1.105-2.224 1.105-3.945 0-1.61-.284-2.511-.523-3.59-.178-.796-.353-1.769-.432-3.406H6L3 0zm8 0L8 3.997h2.045c.085 1.817.282 2.957.478 3.84.26 1.17.477 1.768.477 3.156 0 1.277-.395 2.051-.895 3.05-.5 1-1.105 2.225-1.105 3.946 0 1.61.271 2.74.572 3.494.301.752.721 1.21.721 1.21.25.26.623.366.974.275.35-.092.624-.365.715-.715.092-.35-.014-.723-.275-.973 0 0-.08-.043-.28-.54-.198-.496-.427-1.363-.427-2.751 0-1.277.395-2.052.895-3.051.5-1 1.105-2.224 1.105-3.945 0-1.61-.284-2.511-.523-3.59-.178-.796-.353-1.769-.432-3.406H14L11 0zm8 0l-3 3.997h2.045c.085 1.817.282 2.957.478 3.84.26 1.17.477 1.768.477 3.156 0 1.277-.395 2.051-.895 3.05-.5 1-1.105 2.225-1.105 3.946 0 1.61.271 2.74.572 3.494.301.752.721 1.21.721 1.21.25.26.623.366.974.275.35-.092.624-.365.715-.715.092-.35-.014-.723-.275-.973 0 0-.08-.043-.28-.54-.198-.496-.427-1.363-.427-2.751 0-1.277.395-2.052.895-3.051.5-1 1.105-2.224 1.105-3.945 0-1.61-.284-2.511-.523-3.59-.178-.796-.353-1.769-.432-3.406H22L19 0z"/>
</svg>
