<?xml version="1.0" encoding="UTF-8"?>
<svg width="26px" height="20px" viewBox="0 0 26 20" version="1.1" xmlns="http://www.w3.org/2000/svg" xmlns:xlink="http://www.w3.org/1999/xlink">
    <!-- Generator: sketchtool 58 (101010) - https://sketch.com -->
    <title>3827BEB4-C3C1-41B1-BBDC-F3250CB75900</title>
    <desc>Created with sketchtool.</desc>
    <g id="MASTER" stroke="none" stroke-width="1" fill="none" fill-rule="evenodd">
        <g id="LKconfigurator-default_closeMenu_1440" transform="translate(-170.000000, -1906.000000)" fill="#1d68d9" fill-rule="nonzero">
            <path d="M177.990218,1906.0003 C177.952976,1906.00147 177.915829,1906.00473 177.878951,1906.01005 L172.012984,1906.01005 C170.920513,1906.01005 170.014066,1906.91589 170.014066,1908.00762 L170.014066,1913.84818 C169.987757,1914.00324 169.998458,1914.16232 170.045299,1914.31246 C170.198691,1915.25881 171.027069,1915.99791 172.012984,1915.99791 L173.012443,1915.99791 L173.012443,1924.98699 C173.007346,1925.34719 173.196719,1925.68222 173.508047,1925.86381 C173.819376,1926.04539 174.204427,1926.04539 174.515756,1925.86381 C174.827085,1925.68222 175.016459,1925.34718 175.01136,1924.98699 L175.01136,1915.99791 L175.835133,1915.99791 C175.943704,1916.01596 176.05451,1916.01596 176.16308,1915.99791 L181.831888,1915.99791 C181.940459,1916.01596 182.051264,1916.01596 182.159835,1915.99791 L187.828642,1915.99791 C187.937213,1916.01596 188.048019,1916.01596 188.15659,1915.99791 L191.002706,1915.99791 L191.002706,1920.99184 L177.010277,1920.99184 L177.010277,1922.98942 L191.002706,1922.98942 L191.002706,1924.98699 C190.997608,1925.34719 191.186982,1925.68223 191.498309,1925.86381 C191.809639,1926.0454 192.19469,1926.0454 192.506019,1925.86381 C192.817348,1925.68222 193.006722,1925.34719 193.001623,1924.98699 L193.001623,1915.99791 L194.001081,1915.99791 C195.093552,1915.99791 196,1915.09208 196,1914.00034 L196,1908.00763 C196,1906.91589 195.093554,1906.01005 194.001081,1906.01005 L190.14965,1906.01005 C190.094708,1906.0022 190.039208,1905.99894 189.983724,1906.0003 C189.946482,1906.00148 189.909335,1906.00473 189.872457,1906.01005 L184.152895,1906.01005 C184.097953,1906.0022 184.042454,1905.99894 183.98697,1906.0003 C183.949727,1906.00148 183.91258,1906.00473 183.875702,1906.01005 L178.15614,1906.01005 C178.101198,1906.0022 178.045699,1905.99894 177.990215,1906.0003 L177.990218,1906.0003 Z M172.012984,1908.00762 L175.596983,1908.00762 L172.012984,1911.58921 L172.012984,1908.00762 Z M178.423578,1908.00762 L181.593738,1908.00762 L175.596983,1914.00034 L172.426823,1914.00034 L178.423578,1908.00762 Z M184.420333,1908.00762 L187.590493,1908.00762 L181.593738,1914.00034 L178.423578,1914.00034 L184.420333,1908.00762 Z M190.417088,1908.00762 L193.587248,1908.00762 L187.590493,1914.00034 L184.420333,1914.00034 L190.417088,1908.00762 Z M194.001086,1910.41875 L194.001086,1914.00034 L190.417088,1914.00034 L194.001086,1910.41875 Z" id="Shape"></path>
        </g>
    </g>
</svg>