<?xml version="1.0" encoding="UTF-8"?>
<svg width="24px" height="24px" viewBox="0 0 24 24" version="1.1" xmlns="http://www.w3.org/2000/svg" xmlns:xlink="http://www.w3.org/1999/xlink">
    <!-- Generator: sketchtool 58 (101010) - https://sketch.com -->
    <title>FA1EC991-AA0A-40C6-862E-92051E48B859</title>
    <desc>Created with sketchtool.</desc>
    <g id="MASTER" stroke="none" stroke-width="1" fill="none" fill-rule="evenodd">
        <g id="LKconfigurator-default_closeMenu_1440" transform="translate(-171.000000, -1834.000000)" fill="#293440" fill-rule="nonzero">
            <path d="M187.977584,1834.00044 C187.718052,1834.00817 187.471723,1834.11664 187.290787,1834.30286 L183.002213,1838.59141 L179.712615,1835.30183 C179.524537,1835.1085 179.266277,1834.99943 178.996551,1834.99941 C178.590044,1834.99952 178.224135,1835.24591 178.071169,1835.62254 C177.918204,1835.99916 178.008687,1836.43092 178.300001,1836.71444 L182.153474,1840.56789 C182.228821,1840.683 182.327129,1840.78131 182.442241,1840.85666 L188.147332,1846.56172 C188.222679,1846.67683 188.320987,1846.77514 188.436098,1846.85048 L192.285669,1850.70004 C192.53623,1850.96101 192.908298,1851.06613 193.258381,1850.97487 C193.608465,1850.88361 193.881858,1850.61022 193.973121,1850.26014 C194.064385,1849.91005 193.959257,1849.53799 193.698284,1849.28743 L190.408686,1845.99785 L194.697259,1841.70929 C194.992716,1841.4221 195.081554,1840.98298 194.920964,1840.60352 C194.760374,1840.22406 194.383303,1839.98212 193.971441,1839.99426 C193.711909,1840.002 193.465581,1840.11046 193.284645,1840.29669 L188.996071,1844.58524 L184.414828,1840.00402 L188.703402,1835.71547 C188.998859,1835.42827 189.087697,1834.98915 188.927107,1834.60969 C188.766517,1834.23024 188.389444,1833.98829 187.977584,1834.00044 L187.977584,1834.00044 Z M177.611254,1838.72604 L173.47682,1842.86045 C171.52582,1844.81145 171.52582,1847.97445 173.47682,1849.92544 L173.681688,1850.13031 L173.398775,1850.41322 C172.44675,1851.36524 172.44675,1852.90883 173.398775,1853.86085 L173.562668,1854.02474 L171.307167,1856.28023 C171.046198,1856.53079 170.941072,1856.90285 171.032337,1857.25293 C171.1236,1857.60301 171.396992,1857.8764 171.747073,1857.96766 C172.097154,1858.05893 172.469221,1857.9538 172.719782,1857.69283 L174.975283,1855.43734 L175.141128,1855.60319 C176.093153,1856.55521 177.634791,1856.55521 178.586815,1855.60319 L178.871679,1855.32028 L179.074595,1855.52319 C181.025596,1857.47418 184.188621,1857.47418 186.139621,1855.52319 L190.274057,1851.38878 L177.611254,1838.72604 Z M178.007331,1844.99888 C178.558766,1844.99888 179.006307,1845.44642 179.006307,1845.99785 C179.006307,1846.54928 178.558766,1846.99682 178.007331,1846.99682 C177.455897,1846.99682 177.008356,1846.54928 177.008356,1845.99785 C177.008356,1845.44642 177.455897,1844.99888 178.007331,1844.99888 Z M183.002213,1849.99373 C183.553648,1849.99373 184.001189,1850.44127 184.001189,1850.9927 C184.001189,1851.54414 183.553648,1851.99167 183.002213,1851.99167 C182.450778,1851.99167 182.003238,1851.54414 182.003238,1850.9927 C182.003238,1850.44127 182.450778,1849.99373 183.002213,1849.99373 Z" id="Shape"></path>
        </g>
    </g>
</svg>