<?xml version="1.0" encoding="UTF-8"?>
<svg width="22px" height="22px" viewBox="0 0 22 22" version="1.1" xmlns="http://www.w3.org/2000/svg" xmlns:xlink="http://www.w3.org/1999/xlink">
    <!-- Generator: sketchtool 58 (101010) - https://sketch.com -->
    <title>71D39497-4C28-4221-B5BF-66C01F5D5BAA</title>
    <desc>Created with sketchtool.</desc>
    <g id="MASTER" stroke="none" stroke-width="1" fill="none" fill-rule="evenodd">
        <g id="LKconfigurator-default_closeMenu_1440" transform="translate(-172.000000, -1338.000000)" fill="#1d68d9" fill-rule="nonzero">
            <path d="M174,1338 C172.906938,1338 172,1338.90694 172,1340 L172,1358 C172,1359.09306 172.906937,1360 174,1360 L192,1360 C193.093063,1360 194,1359.09306 194,1358 L194,1340 C194,1338.90694 193.093065,1338 192,1338 L174,1338 Z M174.000001,1340 L192.000001,1340 L192.000001,1358 L174.000001,1358 L174.000001,1340 Z M177.000001,1342 C176.448001,1342 176.000001,1342.448 176.000001,1343 L176.000001,1347 C176.000001,1347.552 176.448001,1348 177.000001,1348 L181.000001,1348 C181.552,1348 182.000001,1347.552 182.000001,1347 L182.000001,1343 C182.000001,1342.448 181.552,1342 181.000001,1342 L177.000001,1342 Z M185.000002,1342 C184.448001,1342 184.000002,1342.448 184.000002,1343 L184.000002,1347 C184.000002,1347.552 184.448001,1348 185.000002,1348 L189.000002,1348 C189.552001,1348 190.000002,1347.552 190.000002,1347 L190.000002,1343 C190.000002,1342.448 189.552001,1342 189.000002,1342 L185.000002,1342 Z M177.000001,1350 C176.448001,1350 176.000001,1350.448 176.000001,1351 L176.000001,1355 C176.000001,1355.552 176.448001,1356 177.000001,1356 L181.000001,1356 C181.552,1356 182.000001,1355.552 182.000001,1355 L182.000001,1351 C182.000001,1350.448 181.552,1350 181.000001,1350 L177.000001,1350 Z M185.000002,1350 C184.448001,1350 184.000002,1350.448 184.000002,1351 L184.000002,1355 C184.000002,1355.552 184.448001,1356 185.000002,1356 L189.000002,1356 C189.552001,1356 190.000002,1355.552 190.000002,1355 L190.000002,1351 C190.000002,1350.448 189.552001,1350 189.000002,1350 L185.000002,1350 Z" id="Shape"></path>
        </g>
    </g>
</svg>