<?xml version="1.0" encoding="UTF-8"?>
<svg width="24px" height="23px" viewBox="0 0 24 23" version="1.1" xmlns="http://www.w3.org/2000/svg" xmlns:xlink="http://www.w3.org/1999/xlink">
    <!-- Generator: sketchtool 58 (101010) - https://sketch.com -->
    <title>0D9D3C82-D1D4-4A0F-A701-200C3F0FAB1E</title>
    <desc>Created with sketchtool.</desc>
    <g id="MASTER" stroke="none" stroke-width="1" fill="none" fill-rule="evenodd">
        <g id="LKconfigurator-default_closeMenu_1440" transform="translate(-171.000000, -1408.000000)" fill="#293440">
            <path d="M182.118402,1410.63275 C183.066012,1411.58036 183.630478,1412.766 183.811786,1413.99718 L183.811786,1413.99718 L193.999839,1413.99726 C194.552213,1413.99726 195,1414.44504 195,1414.99742 C195,1415.54979 194.552213,1415.99758 193.999839,1415.99758 L193.999839,1415.99758 L183.771083,1415.99716 C183.554646,1417.14103 183.003757,1418.23411 182.118402,1419.1194 C181.495729,1419.74204 180.770263,1420.19925 179.996627,1420.49105 L179.996627,1420.49105 L179.996601,1429.99977 C179.996601,1430.55218 179.548784,1431 178.996374,1431 C178.443965,1431 177.996148,1430.55218 177.996148,1429.99977 L177.996148,1429.99977 L177.996898,1420.87584 C176.420558,1420.90773 174.834059,1420.32226 173.631198,1419.1194 L173.631198,1419.1194 L180.42539,1412.32565 C180.7397,1412.01137 181.02433,1411.72675 181.266683,1411.48442 Z M179.825401,1408.2013 L179.919641,1408.28445 C179.919826,1408.28464 179.920011,1408.28482 179.919641,1408.28557 L179.945033,1408.31098 C180.33463,1408.70199 180.33463,1409.33473 179.945033,1409.72575 L172.724391,1416.95207 C172.334576,1417.3433 171.701411,1417.34355 171.310733,1416.95318 L171.310733,1416.95207 L171.285341,1416.92666 C170.895743,1416.53564 170.895743,1415.9029 171.285341,1415.51189 L178.505983,1408.28557 C178.865812,1407.92443 179.432993,1407.89643 179.825401,1408.2013 Z" id="Combined-Shape"></path>
        </g>
    </g>
</svg>