<svg xmlns="http://www.w3.org/2000/svg" width="22" height="22" viewBox="0 0 22 22">
    <path fill="#293440" d="M3.829 0C3 0 2.37.56 1.93 1.207c-.438.646-.771 1.462-1.05 2.434C.322 5.584 0 8.158 0 11c0 2.842.322 5.416.88 7.36.28.971.613 1.787 1.051 2.433.44.646 1.07 1.207 1.898 1.207.828 0 1.459-.56 1.898-1.207.438-.646.771-1.462 1.05-2.434.558-1.943.88-4.517.88-7.359 0-2.842-.322-5.416-.88-7.36-.279-.971-.612-1.787-1.05-2.433C5.287.561 4.657 0 3.829 0zm4.786 0c-.401 0-.764.147-1.1.39.331.558.607 1.184.84 1.85.098-.129.187-.21.26-.236.54.2 1.915 3.197 1.915 8.996 0 5.851-1.397 8.85-1.9 9.002-.076-.022-.17-.107-.275-.244-.233.667-.509 1.294-.84 1.851.336.244.699.391 1.1.391 2.63 0 3.829-5.702 3.829-11S11.246 0 8.615 0zm4.786 0c-.4 0-.764.147-1.1.39.331.558.607 1.184.84 1.85.098-.129.187-.21.26-.236.541.2 1.915 3.197 1.915 8.996 0 5.851-1.397 8.85-1.9 9.002-.075-.022-.17-.107-.275-.244-.233.667-.509 1.294-.84 1.851.336.244.7.391 1.1.391 2.63 0 3.83-5.702 3.83-11S16.03 0 13.4 0zm4.786 0c-.4 0-.764.147-1.099.39.33.558.606 1.184.84 1.85.097-.129.187-.21.26-.236.509.189 1.757 2.857 1.9 8.01.016.546.433.986.956.986.546 0 .973-.476.955-1.045C21.853 4.98 20.646 0 18.187 0zM3.83 2c-.035 0 .088 0 .336.365.249.366.538 1.014.778 1.852.481 1.675.8 4.103.8 6.783 0 2.68-.319 5.108-.8 6.783-.24.838-.53 1.486-.778 1.852-.248.366-.37.365-.336.365.035 0-.088 0-.337-.365-.248-.366-.537-1.014-.777-1.852-.482-1.675-.8-4.103-.8-6.783 0-2.68.318-5.108.8-6.783.24-.838.529-1.486.777-1.852C3.741 2 3.864 2 3.83 2z"/>
</svg>
