<svg id="Capa_1" enable-background="new 0 0 510 510" height="512" viewBox="0 0 510 510" width="512" xmlns="http://www.w3.org/2000/svg"><g><g><path d="m255 90c-90.981 0-165 74.019-165 165s74.019 165 165 165 165-74.019 165-165-74.019-165-165-165zm134.162 180h-119.162v-30h119.162c1.088 9.792 1.146 19.69 0 30zm-119.162-149.162c26.238 2.914 50.228 13.375 69.748 29.162h-69.748zm0 239.162h69.748c-19.52 15.786-43.51 26.248-69.748 29.162zm0-30v-30h112.278c-3.786 10.678-8.876 20.743-15.084 30zm0-120v-30h97.194c6.208 9.257 11.298 19.322 15.084 30zm-150 45c0-69.369 52.594-126.676 120-134.162v268.324c-67.406-7.486-120-64.793-120-134.162z"/></g><g><path d="m240 0h30v60h-30z"/></g><g><path d="m240 450h30v60h-30z"/></g><g><path d="m384.099 80.901h60v30h-60z" transform="matrix(.707 -.707 .707 .707 53.475 320.901)"/></g><g><path d="m65.901 399.099h60v30h-60z" transform="matrix(.707 -.707 .707 .707 -264.724 189.099)"/></g><g><path d="m450 240h60v30h-60z"/></g><g><path d="m0 240h60v30h-60z"/></g><g><path d="m399.099 384.099h30v60h-30z" transform="matrix(.707 -.707 .707 .707 -171.526 414.1)"/></g><g><path d="m80.901 65.901h30v60h-30z" transform="matrix(.707 -.707 .707 .707 -39.724 95.902)"/></g></g></svg>