<?xml version="1.0" encoding="utf-8"?>
<!-- Generator: Adobe Illustrator 23.0.3, SVG Export Plug-In . SVG Version: 6.00 Build 0)  -->
<svg version="1.1" id="Capa_1" xmlns="http://www.w3.org/2000/svg" xmlns:xlink="http://www.w3.org/1999/xlink" x="0px" y="0px"
	 viewBox="0 0 512 512" style="enable-background:new 0 0 512 512;" xml:space="preserve">
<style type="text/css">
	.st0{font-family:'MyriadPro-Regular';}
	.st1{font-size:12px;}
</style>
<g>
	<g>
		<path d="M255.1,108.4c-80.9,0-146.7,65.8-146.7,146.7s65.8,146.7,146.7,146.7S401.8,336,401.8,255.1S336,108.4,255.1,108.4z
			 M374.4,268.5h-106v-26.7h106C375.4,250.5,375.4,259.3,374.4,268.5z M268.5,135.8c23.3,2.6,44.7,11.9,62,25.9h-62V135.8z
			 M268.5,348.5h62c-17.4,14-38.7,23.3-62,25.9V348.5z M268.5,321.8v-26.7h99.8c-3.4,9.5-7.9,18.4-13.4,26.7H268.5z M268.5,215.1
			v-26.7h86.4c5.5,8.2,10,17.2,13.4,26.7H268.5z M135.1,255.1c0-61.7,46.8-112.7,106.7-119.3v238.6
			C181.8,367.8,135.1,316.8,135.1,255.1L135.1,255.1z"/>
	</g>
	<g>
		<path d="M241.8,28.3h26.7v53.4h-26.7V28.3z"/>
	</g>
	<g>
		<path d="M241.8,428.5h26.7v53.4h-26.7V428.5z"/>
	</g>
	<g>
		<path d="M368.3,123.1L406,85.4l18.9,18.9L387.1,142L368.3,123.1z"/>
	</g>
	<g>
		<path d="M85.3,406l37.7-37.7l18.9,18.9l-37.7,37.7L85.3,406z"/>
	</g>
	<g>
		<path d="M428.5,241.8h53.4v26.7h-53.4V241.8z"/>
	</g>
	<g>
		<path d="M28.3,241.8h53.4v26.7H28.3V241.8z"/>
	</g>
	<g>
		<path d="M368.2,387.2l18.9-18.9l37.7,37.7L406,424.9L368.2,387.2z"/>
	</g>
	<g>
		<path d="M85.3,104.2l18.9-18.9l37.7,37.7L123,141.9L85.3,104.2z"/>
	</g>
</g>
<text transform="matrix(1 0 0 1 337.5 338)" class="st0 st1">sensor</text>
<g>
	<path d="M1-1v512h512V-1H1z M483,481H31V29h452V481z"/>
</g>
</svg>
