<svg xmlns="http://www.w3.org/2000/svg" width="28" height="28" viewBox="0 0 28 28">
    <path fill="#293440" d="M12 0C5.385 0 0 5.385 0 12s5.385 12 12 12v-2C6.465 22 2 17.535 2 12S6.465 2 12 2s10 4.465 10 10h2c0-6.615-5.385-12-12-12zm0 4c-4.406 0-8 3.594-8 8 0 4.406 3.594 8 8 8v-2c-3.326 0-6-2.674-6-6s2.674-6 6-6 6 2.674 6 6h2c0-4.406-3.594-8-8-8zm14 15v1h-3v2h3v1h-3v3h-1v-7h4zm-9 0l1.5 2 1.5-2h1v7h-1v-5l-1.5 2-1.5-2v5h-1v-7h1zM12 8c2.13 0 3.89 1.695 3.995 3.801L16 12h-2c0-1.117-.883-2-2-2s-2 .883-2 2c0 1.066.805 1.92 1.85 1.995L12 14v2c-2.197 0-4-1.803-4-4s1.803-4 4-4zm5.828 6c-.53 0-1.039.21-1.414.586l-1.828 1.828c-.375.375-.586.883-.586 1.414V27c0 .552.448 1 1 1h12c.552 0 1-.448 1-1V15c0-.552-.448-1-1-1h-9.172z"/>
</svg>
