<svg xmlns="http://www.w3.org/2000/svg" width="26" height="24" viewBox="0 0 26 24">
    <path fill="#293440" d="M4.984 0C4.433.01 3.992.462 4 1.013v2.999H3c-1.645 0-3 1.354-3 2.998v13.992C0 22.646 1.355 24 3 24h20c1.645 0 3-1.354 3-2.998V7.01c0-1.644-1.355-2.998-3-2.998h-1V1.013c.004-.27-.102-.53-.294-.72-.19-.192-.451-.297-.722-.293-.551.009-.992.462-.984 1.013v2.999h-2V1.013c0-.551-.448-1-1-1h-1c-.552 0-1 .449-1 1v2.999h-2V1.013c0-.551-.448-1-1-1H9c-.552 0-1 .449-1 1v2.999H6V1.013c.004-.27-.102-.53-.294-.72C5.516.1 5.255-.005 4.984 0zM3 6.01h1.832c.108.018.218.018.326 0h15.674c.108.018.218.018.326 0H23c.565 0 1 .435 1 1v13.992c0 .564-.435 1-1 1H3c-.565 0-1-.436-1-1V7.01c0-.565.435-1 1-1zm1.984 1.986c-.048 0-.096.005-.144.013H4v10.994c-.005.36.184.696.496.877.311.182.697.182 1.008 0 .312-.181.501-.517.496-.877V8.009h-.846c-.056-.01-.113-.014-.17-.013zm16 0c-.048 0-.096.005-.144.013H20v10.994c-.005.36.184.696.496.877.311.182.697.182 1.008 0 .312-.181.501-.517.496-.877V8.009h-.846c-.056-.01-.113-.014-.17-.013zM8 8.009v10.994c0 .552.448 1 1 1h3c.552 0 1-.448 1-1V8.009H8zm7 0v10.994c0 .552.448 1 1 1h1c.552 0 1-.448 1-1V8.009h-3z"/>
</svg>
