<svg xmlns="http://www.w3.org/2000/svg" width="28" height="28" viewBox="0 0 28 28">
    <path fill="#293440" d="M20.013 0C24.413 0 28 3.588 28 7.988c.007.55-.432 1.003-.983 1.012-.27.004-.53-.101-.72-.292-.192-.19-.298-.45-.294-.72 0-3.32-2.67-5.991-5.99-5.991-.36.005-.695-.184-.877-.495-.181-.311-.181-.696 0-1.007.182-.31.517-.5.877-.495zm0 3.994c2.193 0 3.993 1.8 3.993 3.994.008.55-.432 1.003-.983 1.012-.27.004-.53-.101-.72-.292-.192-.19-.297-.45-.294-.72 0-1.115-.881-1.997-1.996-1.997-.36.005-.695-.184-.877-.495-.181-.311-.181-.696 0-1.007.182-.31.517-.5.877-.495zm-7.427 1.592l-12 12c-.781.781-.781 2.047 0 2.828l7 7c.78.781 2.047.781 2.828 0l12-12c.78-.78.78-2.047 0-2.828l-7-7C15.024 5.196 14.512 5 14 5c-.512 0-1.024.195-1.414.586zM14.5 10c1.933 0 3.5 1.567 3.5 3.5S16.433 17 14.5 17 11 15.433 11 13.5s1.567-3.5 3.5-3.5zM13 13.5c0 .829.671 1.5 1.5 1.5.828 0 1.5-.671 1.5-1.5 0-.828-.672-1.5-1.5-1.5-.829 0-1.5.672-1.5 1.5zM9 17c0 .552-.448 1-1 1s-1-.448-1-1 .448-1 1-1 1 .448 1 1zm-4 2c.552 0 1 .448 1 1s-.448 1-1 1-1-.448-1-1 .448-1 1-1zm6 0c.552 0 1 .448 1 1s-.448 1-1 1-1-.448-1-1 .448-1 1-1zm-2 4c0 .552-.448 1-1 1s-1-.448-1-1 .448-1 1-1 1 .448 1 1z"/>
</svg>
