<?xml version="1.0" encoding="UTF-8"?>
<svg width="28px" height="28px" viewBox="0 0 28 28" version="1.1" xmlns="http://www.w3.org/2000/svg" xmlns:xlink="http://www.w3.org/1999/xlink">
    <!-- Generator: Sketch 58 (84663) - https://sketch.com -->
    <title>Shape</title>
    <desc>Created with Sketch.</desc>
    <g id="MASTER" stroke="none" stroke-width="1" fill="none" fill-rule="evenodd">
        <g id="Icons-Modules" transform="translate(-31.000000, -568.000000)" fill="#293440" fill-rule="nonzero">
            <path d="M51.0126291,568.0001 C55.4120584,568.0001 58.9999045,571.588123 58.9999045,575.987769 C59.0074448,576.538451 58.5677348,576.99127 58.0170953,576.999878 C57.7472322,577.004092 57.4871576,576.898878 57.2961282,576.708207 C57.1050988,576.517535 56.9993899,576.25765 57.0030852,575.987767 C57.0030852,572.66733 54.3329021,569.997016 51.0126291,569.997016 C50.6525679,570.00211 50.3176561,569.812926 50.1361383,569.501908 C49.9546206,569.190891 49.9546206,568.806225 50.1361383,568.495208 C50.3176544,568.184192 50.6525662,567.995008 51.0126291,568.0001 Z M51.0126309,571.993935 C53.2064682,571.993935 55.0062677,573.793821 55.0062677,575.987769 C55.013808,576.538451 54.5740981,576.99127 54.0234585,576.999878 C53.7535971,577.004094 53.4935225,576.89888 53.3024931,576.708209 C53.1114638,576.517537 53.0057549,576.257652 53.0094501,575.987769 C53.0094501,574.872824 52.1275209,573.990851 51.0126309,573.990851 C50.6525696,573.995945 50.3176579,573.806761 50.1361401,573.495743 C49.9546223,573.184726 49.9546223,572.80006 50.1361401,572.489043 C50.3176561,572.178027 50.6525679,571.988843 51.0126309,571.993935 Z M43.5857496,573.585938 L31.5857496,585.585938 C30.8047501,586.366938 30.8047501,587.633063 31.5857496,588.414063 L38.5857507,595.414062 C39.3667501,596.195062 40.632874,596.195063 41.4138751,595.414062 L53.4138751,583.414062 C54.1948746,582.633063 54.1948746,581.366937 53.4138751,580.585938 L46.4138757,573.585937 C46.0233769,573.195436 45.5115629,573 44.9998135,573 C44.4880624,573 43.9762484,573.195438 43.5857496,573.585938 Z M45.49981,578.000001 C47.43281,578.000001 48.99981,579.567 48.99981,581.500001 C48.99981,583.433001 47.4328118,585.000001 45.49981,585.000001 C43.5668112,585.000001 41.99981,583.433002 41.99981,581.500001 C41.99981,579.567002 43.5668094,578.000001 45.49981,578.000001 Z M43.9998106,581.500001 C43.9998106,582.328428 44.6713833,583.000001 45.4998106,583.000001 C46.3282379,583.000001 46.9998106,582.328428 46.9998106,581.500001 C46.9998106,580.671574 46.3282379,580.000001 45.4998106,580.000001 C44.6713833,580.000001 43.9998106,580.671574 43.9998106,581.500001 Z M39.9998124,585.000001 C39.9998124,585.552 39.5518118,586.000001 38.9998124,586.000001 C38.4478118,586.000001 37.9998124,585.552 37.9998124,585.000001 C37.9998124,584.448 38.4478118,584.000001 38.9998124,584.000001 C39.5518118,584.000001 39.9998124,584.448 39.9998124,585.000001 Z M35.9998124,587.000001 C36.5518118,587.000001 36.9998124,587.448 36.9998124,588.000001 C36.9998124,588.552 36.5518118,589.000001 35.9998124,589.000001 C35.4478118,589.000001 34.9998124,588.552 34.9998124,588.000001 C34.9998124,587.448 35.4478118,587.000001 35.9998124,587.000001 Z M41.9998124,587.000001 C42.5518118,587.000001 42.9998124,587.448 42.9998124,588.000001 C42.9998124,588.552 42.5518118,589.000001 41.9998124,589.000001 C41.4478118,589.000001 40.9998124,588.552 40.9998124,588.000001 C40.9998124,587.448 41.4478118,587.000001 41.9998124,587.000001 Z M39.9998124,591.000001 C39.9998124,591.552 39.5518118,592.000001 38.9998124,592.000001 C38.4478118,592.000001 37.9998124,591.552 37.9998124,591.000001 C37.9998124,590.448 38.4478118,590.000001 38.9998124,590.000001 C39.5518118,590.000001 39.9998124,590.448 39.9998124,591.000001 Z" id="Shape"></path>
        </g>
    </g>
</svg>