<?xml version="1.0" encoding="iso-8859-1"?>
<!-- Generator: Adobe Illustrator 19.0.0, SVG Export Plug-In . SVG Version: 6.00 Build 0)  -->
<svg version="1.1" id="Capa_1" xmlns="http://www.w3.org/2000/svg" xmlns:xlink="http://www.w3.org/1999/xlink" x="0px" y="0px"
	 viewBox="0 0 512 512" style="enable-background:new 0 0 512 512;" xml:space="preserve">
<g>
	<g>
		<path d="M354.08,346.716V317.26h102.084v-80.066h-41.034V95.078C415.131,42.652,372.479,0,320.053,0H191.947
			c-52.426,0-95.078,42.652-95.078,95.078v142.117H55.836v80.066H157.92v29.456L49.249,455.386L105.865,512l132.12-132.12V317.26
			h36.03v62.619L406.135,512l56.615-56.613L354.08,346.716z M126.894,95.078c0-35.87,29.183-65.053,65.053-65.053h128.105
			c35.87,0,65.053,29.183,65.053,65.053v142.117H329.06v-47.039h6.218l28.811-28.811V76.062H264.007v85.283l28.811,28.811h6.218
			v47.039h-86.071v-47.039h6.218l28.811-28.811V76.062H147.911v85.283l28.811,28.811h6.218v47.039h-56.046V95.078z M322.842,160.131
			h-17.587l-11.222-11.222v-42.822h40.033v42.822L322.842,160.131z M206.747,160.131h-17.587l-11.222-11.222v-42.822h40.033v42.822
			L206.747,160.131z M207.961,367.444L207.961,367.444L105.865,469.539l-14.154-14.155l96.233-96.233V317.26h20.016V367.444z
			 M85.86,287.236v-20.016H426.14v20.016H85.86z M304.039,367.444V317.26h20.016v41.891l96.233,96.234l-14.154,14.154
			L304.039,367.444z"/>
	</g>
</g>
<g>
	<g>
		<circle cx="197.952" cy="133.109" r="15.012"/>
	</g>
</g>
<g>
	<g>
		<circle cx="314.048" cy="133.109" r="15.012"/>
	</g>
</g>
<g>
</g>
<g>
</g>
<g>
</g>
<g>
</g>
<g>
</g>
<g>
</g>
<g>
</g>
<g>
</g>
<g>
</g>
<g>
</g>
<g>
</g>
<g>
</g>
<g>
</g>
<g>
</g>
<g>
</g>
</svg>
