<svg xmlns="http://www.w3.org/2000/svg" xmlns:xlink="http://www.w3.org/1999/xlink" width="90" height="90" viewBox="0 0 90 90">
    <defs>
        <path id="prefix__a" d="M0 0H100V100H0z"/>
    </defs>
    <g fill="none" fill-rule="evenodd">
        <mask id="prefix__b" fill="#fff">
            <use xlink:href="#prefix__a"/>
        </mask>
        <path fill="#EBEFF3" fill-rule="nonzero" d="M30.012-30c-2.198 0-4.4 1.072-5.688 3.218l-2.507 4.183c-1.08 1.8-2.855 3.016-4.876 3.57-.024.005-.05.014-.073.018-2.044.563-4.211.39-6.066-.64l-4.273-2.362c-4.376-2.432-9.761.676-9.844 5.68l-.082 4.94c-.037 2.09-.966 4.031-2.443 5.508l-.045.045c-1.477 1.482-3.417 2.411-5.508 2.443l-4.93.081c-5.008.088-8.121 5.47-5.689 9.845l2.37 4.282c1.021 1.842 1.19 4 .632 6.031-.01.037-.022.071-.036.108-.55 2.008-1.748 3.78-3.534 4.85l-4.2 2.515c-4.293 2.576-4.293 8.797 0 11.368l4.2 2.516c1.786 1.07 2.99 2.842 3.534 4.85.01.037.022.071.036.108.558 2.03.389 4.19-.631 6.03l-2.37 4.292c-2.429 4.376.684 9.761 5.687 9.844l4.931.082c2.091.037 4.031.966 5.508 2.443l.045.045c1.482 1.477 2.411 3.417 2.443 5.508l.082 4.931c.083 5.004 5.468 8.116 9.844 5.689l4.282-2.38c1.837-1.02 4-1.19 6.03-.631.037.009.072.022.109.036 2.007.549 3.779 1.756 4.85 3.543l2.515 4.192c2.575 4.292 8.792 4.292 11.367 0l2.515-4.192c1.07-1.787 2.833-2.999 4.841-3.543.037-.01.08-.023.117-.036 2.026-.559 4.18-.39 6.022.63l4.282 2.38c4.375 2.428 9.76-.684 9.844-5.688l.081-4.931c.037-2.091.966-4.031 2.443-5.508l.045-.045c1.477-1.482 3.417-2.411 5.508-2.443l4.94-.082c5.003-.083 8.116-5.468 5.688-9.844l-2.38-4.282c-1.02-1.842-1.189-4-.63-6.031.009-.037.022-.071.036-.108.549-2.008 1.756-3.78 3.542-4.85l4.192-2.516c4.306-2.575 4.306-8.8.018-11.376L82.594 21.8c-1.786-1.07-2.998-2.833-3.542-4.84-.01-.038-.023-.081-.036-.118-.559-2.026-.39-4.18.63-6.022l2.38-4.282c2.428-4.376-.685-9.761-5.688-9.845l-4.94-.08c-2.09-.038-4.03-.967-5.508-2.444l-.045-.045c-1.481-1.477-2.41-3.417-2.443-5.508l-.081-4.94c-.088-5.013-5.468-8.121-9.844-5.689l-4.282 2.371c-1.837 1.02-4 1.19-6.03.631-.038-.009-.072-.022-.109-.036-2.008-.549-3.78-1.747-4.85-3.534l-2.515-4.2C34.403-28.929 32.21-30 30.011-30zM19.308 9.32c7.26 0 11.999 4.986 11.999 12.648 0 7.63-4.739 12.648-11.999 12.648-7.218 0-11.998-5.018-11.998-12.648S12.057 9.32 19.308 9.32zm26.107 1.226h11.277L38.014 36.338l-13.08 23.124H13.61l18.38-25.666 13.424-23.25zm-26.107 6.067c-2.068 0-3.317 1.973-3.317 5.328 0 3.323 1.25 5.32 3.317 5.32 2.036 0 3.29-2.001 3.29-5.32 0-3.388-1.185-5.328-3.29-5.328zm31.425 18.779c7.219 0 11.963 4.986 11.963 12.612 0 7.666-4.744 12.675-11.963 12.675-7.218 0-11.962-5.013-11.962-12.675 0-7.626 4.744-12.612 11.962-12.612zm0 7.293c-2.067 0-3.326 1.963-3.326 5.319 0 3.323 1.259 5.327 3.326 5.327 2.036 0 3.282-2.004 3.282-5.327 0-3.393-1.218-5.32-3.282-5.32z" mask="url(#prefix__b)"/>
    </g>
</svg>
