<svg xmlns="http://www.w3.org/2000/svg" width="26" height="24" viewBox="0 0 26 24">
    <path fill="#293440" d="M13 0c-.552 0-1 .448-1 1s.448 1 1 1 1-.448 1-1-.448-1-1-1zM4 2c-.552 0-1 .448-1 1s.448 1 1 1 1-.448 1-1-.448-1-1-1zm18 0c-.552 0-1 .448-1 1s.448 1 1 1 1-.448 1-1-.448-1-1-1zM9.7 4C8.24 4 7.014 5.03 6.71 6.562L5.048 18.598C4.945 19.34 5.52 20 6.27 20h13.46c.753 0 1.33-.667 1.221-1.412L19.195 6.6c-.15-1.506-1.368-2.6-2.894-2.6H9.699zm-.134 2c.525 0 .93.462.858.982L9.006 17.25c-.06.43-.428.75-.861.75-.527 0-.933-.466-.86-.988L8.711 6.746C8.77 6.318 9.135 6 9.566 6zM2 8c-.552 0-1 .448-1 1s.448 1 1 1 1-.448 1-1-.448-1-1-1zm22 0c-.552 0-1 .448-1 1s.448 1 1 1 1-.448 1-1-.448-1-1-1zM1 15c-.552 0-1 .448-1 1s.448 1 1 1 1-.448 1-1-.448-1-1-1zm24 0c-.552 0-1 .448-1 1s.448 1 1 1 1-.448 1-1-.448-1-1-1zM4 22c-.36-.005-.696.184-.878.496-.182.311-.182.697 0 1.008.182.312.517.501.878.496h18c.36.005.696-.184.878-.496.182-.311.182-.697 0-1.008-.182-.312-.517-.501-.878-.496H4z"/>
</svg>
