<svg xmlns="http://www.w3.org/2000/svg" width="30" height="17" viewBox="0 0 30 17">
    <path fill="#293440" d="M8 0C6.895 0 6 .895 6 2v6c0 1.105.895 2 2 2h12c7.974 0 9.941-8.656 9.941-8.656l-.002-.004c.04-.11.06-.224.061-.34 0-.552-.448-1-1-1H8zM1 3c-.552 0-1 .448-1 1 0 .171.045.34.129.488l-.002.004S1.484 7 4 7V3H1zm11 9s-1 3-3 3c-.36-.005-.696.184-.878.496-.182.311-.182.697 0 1.008.182.312.517.501.878.496h5c.285 0 .556-.122.746-.334 0 0 .752-.666 1.254-.666s1.254.666 1.254.666c.19.212.461.334.746.334h5c.36.005.696-.184.878-.496.182-.311.182-.697 0-1.008-.182-.312-.517-.501-.878-.496-2 0-3-3-3-3h-8z"/>
</svg>
