<svg xmlns="http://www.w3.org/2000/svg" width="22" height="24" viewBox="0 0 22 24">
    <path fill="#293440" d="M10 0c-.552 0-1 .448-1 1v1.191C3.889 3.136 0 7.621 0 13c0 6.063 4.937 11 11 11s11-4.937 11-11c0-5.38-3.889-9.864-9-10.809V1c0-.552-.448-1-1-1h-2zm8.99 1.99c-.407 0-.773.247-.926.624-.153.377-.063.81.229 1.093l1 1c.25.261.623.366.974.275.35-.091.624-.365.715-.715.091-.35-.014-.723-.275-.974l-1-1c-.188-.194-.447-.303-.717-.303zM11 4c4.982 0 9 4.018 9 9s-4.018 9-9 9-9-4.018-9-9 4.018-9 9-9zm-.016 1.986c-.551.009-.992.462-.984 1.014v4.271c-.618.357-.999 1.016-1 1.729 0 .714.382 1.373 1 1.73V16c-.005.36.184.696.496.878.311.182.697.182 1.008 0 .312-.182.501-.517.496-.878v-1.271c.618-.357.999-1.016 1-1.729 0-.714-.382-1.373-1-1.73V7c.004-.27-.102-.53-.294-.722-.19-.19-.451-.296-.722-.292z"/>
</svg>
